{
  "accessors": [
    {
      "bufferView": 2,
      "componentType": 5126,
      "count": 263,
      "max": [
        282.8037109375,
        282.80377197265625,
        100.0
      ],
      "min": [
        -230.21995544433594,
        -230.21995544433594,
        -100.0
      ],
      "type": "VEC3"
    },
    {
      "bufferView": 2,
      "byteOffset": 3156,
      "componentType": 5126,
      "count": 263,
      "max": [
        0.996967613697052,
        0.9969679117202759,
        1.0
      ],
      "min": [
        -0.7619789242744446,
        -0.7619799971580505,
        -1.0
      ],
      "type": "VEC3"
    },
    {
      "bufferView": 1,
      "componentType": 5126,
      "count": 263,
      "max": [
        0.625,
        0.75
      ],
      "min": [
        -0.023720137774944305,
        -0.14232082664966583
      ],
      "type": "VEC2"
    },
    {
      "bufferView": 0,
      "componentType": 5125,
      "count": 978,
      "type": "SCALAR"
    },
    {
      "bufferView": 2,
      "byteOffset": 6312,
      "componentType": 5126,
      "count": 87,
      "max": [
        282.8037109375,
        282.80377197265625,
        29.72949981689453
      ],
      "min": [
        -227.3915252685547,
        -227.3915252685547,
        -29.72951316833496
      ],
      "type": "VEC3"
    },
    {
      "bufferView": 2,
      "byteOffset": 7356,
      "componentType": 5126,
      "count": 87,
      "max": [
        0.9970089793205261,
        0.997008740901947,
        0.7851633429527283
      ],
      "min": [
        -0.9991751313209534,
        -0.9991751313209534,
        -0.8037445545196533
      ],
      "type": "VEC3"
    },
    {
      "bufferView": 1,
      "byteOffset": 2104,
      "componentType": 5126,
      "count": 87,
      "max": [
        0.625,
        0.6875
      ],
      "min": [
        0.0,
        0.0
      ],
      "type": "VEC2"
    },
    {
      "bufferView": 0,
      "byteOffset": 3912,
      "componentType": 5125,
      "count": 279,
      "type": "SCALAR"
    },
    {
      "bufferView": 2,
      "byteOffset": 8400,
      "componentType": 5126,
      "count": 263,
      "max": [
        282.8037109375,
        282.80377197265625,
        100.0
      ],
      "min": [
        -230.21995544433594,
        -230.21995544433594,
        -100.0
      ],
      "type": "VEC3"
    },
    {
      "bufferView": 2,
      "byteOffset": 11556,
      "componentType": 5126,
      "count": 263,
      "max": [
        0.996967613697052,
        0.9969679117202759,
        1.0
      ],
      "min": [
        -0.7619789242744446,
        -0.7619799971580505,
        -1.0
      ],
      "type": "VEC3"
    },
    {
      "bufferView": 1,
      "byteOffset": 2800,
      "componentType": 5126,
      "count": 263,
      "max": [
        0.625,
        0.75
      ],
      "min": [
        -0.023720137774944305,
        -0.14232082664966583
      ],
      "type": "VEC2"
    },
    {
      "bufferView": 0,
      "byteOffset": 5028,
      "componentType": 5125,
      "count": 978,
      "type": "SCALAR"
    },
    {
      "bufferView": 2,
      "byteOffset": 14712,
      "componentType": 5126,
      "count": 87,
      "max": [
        282.8037109375,
        282.80377197265625,
        29.72949981689453
      ],
      "min": [
        -227.3915252685547,
        -227.3915252685547,
        -29.72951316833496
      ],
      "type": "VEC3"
    },
    {
      "bufferView": 2,
      "byteOffset": 15756,
      "componentType": 5126,
      "count": 87,
      "max": [
        0.9970089793205261,
        0.997008740901947,
        0.7851633429527283
      ],
      "min": [
        -0.9991751313209534,
        -0.9991751313209534,
        -0.8037445545196533
      ],
      "type": "VEC3"
    },
    {
      "bufferView": 1,
      "byteOffset": 4904,
      "componentType": 5126,
      "count": 87,
      "max": [
        0.625,
        0.6875
      ],
      "min": [
        0.0,
        0.0
      ],
      "type": "VEC2"
    },
    {
      "bufferView": 0,
      "byteOffset": 8940,
      "componentType": 5125,
      "count": 279,
      "type": "SCALAR"
    },
    {
      "bufferView": 2,
      "byteOffset": 16800,
      "componentType": 5126,
      "count": 263,
      "max": [
        282.8037109375,
        282.80377197265625,
        100.0
      ],
      "min": [
        -230.21995544433594,
        -230.21995544433594,
        -100.0
      ],
      "type": "VEC3"
    },
    {
      "bufferView": 2,
      "byteOffset": 19956,
      "componentType": 5126,
      "count": 263,
      "max": [
        0.996967613697052,
        0.9969679117202759,
        1.0
      ],
      "min": [
        -0.7619789242744446,
        -0.7619799971580505,
        -1.0
      ],
      "type": "VEC3"
    },
    {
      "bufferView": 1,
      "byteOffset": 5600,
      "componentType": 5126,
      "count": 263,
      "max": [
        0.625,
        0.75
      ],
      "min": [
        -0.023720137774944305,
        -0.14232082664966583
      ],
      "type": "VEC2"
    },
    {
      "bufferView": 0,
      "byteOffset": 10056,
      "componentType": 5125,
      "count": 978,
      "type": "SCALAR"
    },
    {
      "bufferView": 2,
      "byteOffset": 23112,
      "componentType": 5126,
      "count": 87,
      "max": [
        282.8037109375,
        282.80377197265625,
        29.72949981689453
      ],
      "min": [
        -227.3915252685547,
        -227.3915252685547,
        -29.72951316833496
      ],
      "type": "VEC3"
    },
    {
      "bufferView": 2,
      "byteOffset": 24156,
      "componentType": 5126,
      "count": 87,
      "max": [
        0.9970089793205261,
        0.997008740901947,
        0.7851633429527283
      ],
      "min": [
        -0.9991751313209534,
        -0.9991751313209534,
        -0.8037445545196533
      ],
      "type": "VEC3"
    },
    {
      "bufferView": 1,
      "byteOffset": 7704,
      "componentType": 5126,
      "count": 87,
      "max": [
        0.625,
        0.6875
      ],
      "min": [
        0.0,
        0.0
      ],
      "type": "VEC2"
    },
    {
      "bufferView": 0,
      "byteOffset": 13968,
      "componentType": 5125,
      "count": 279,
      "type": "SCALAR"
    }
  ],
  "asset": {
    "extras": {
      "author": "Kalayan (https://sketchfab.com/calayan)",
      "license": "CC-BY-NC-ND-4.0 (http://creativecommons.org/licenses/by-nc-nd/4.0/)",
      "source": "https://sketchfab.com/3d-models/direction-arrows-75c7bf0dcbf041769aff1296b7b1cbf0",
      "title": "Direction arrows"
    },
    "generator": "Sketchfab-14.87.0",
    "version": "2.0"
  },
  "bufferViews": [
    {
      "buffer": 0,
      "byteLength": 15084,
      "name": "floatBufferViews",
      "target": 34963
    },
    {
      "buffer": 0,
      "byteLength": 8400,
      "byteOffset": 15084,
      "byteStride": 8,
      "name": "floatBufferViews",
      "target": 34962
    },
    {
      "buffer": 0,
      "byteLength": 25200,
      "byteOffset": 23484,
      "byteStride": 12,
      "name": "floatBufferViews",
      "target": 34962
    }
  ],
  "buffers": [
    {
      "byteLength": 48684,
      "uri": "scene.bin"
    }
  ],
  "materials": [
    {
      "doubleSided": true,
      "name": "Principal_color",
      "pbrMetallicRoughness": {
        "baseColorFactor": [
          0.07036009569659582,
          0.456411023180404,
          0.7912979403326302,
          1.0
        ],
        "metallicFactor": 0.0,
        "roughnessFactor": 0.0
      }
    },
    {
      "doubleSided": true,
      "emissiveFactor": [
        0.9301108583754235,
        0.3419144249086609,
        0.0
      ],
      "name": "Orange__halo",
      "pbrMetallicRoughness": {
        "baseColorFactor": [
          0.8,
          0.8,
          0.8,
          1.0
        ],
        "metallicFactor": 0.0,
        "roughnessFactor": 0.8040408205773457
      }
    }
  ],
  "meshes": [
    {
      "name": "A1_Principal color_0",
      "primitives": [
        {
          "attributes": {
            "NORMAL": 1,
            "POSITION": 0,
            "TEXCOORD_0": 2
          },
          "indices": 3,
          "material": 0,
          "mode": 4
        }
      ]
    },
    {
      "name": "A1_Orange  halo_0",
      "primitives": [
        {
          "attributes": {
            "NORMAL": 5,
            "POSITION": 4,
            "TEXCOORD_0": 6
          },
          "indices": 7,
          "material": 1,
          "mode": 4
        }
      ]
    },
    {
      "name": "A1.001_Principal color_0",
      "primitives": [
        {
          "attributes": {
            "NORMAL": 9,
            "POSITION": 8,
            "TEXCOORD_0": 10
          },
          "indices": 11,
          "material": 0,
          "mode": 4
        }
      ]
    },
    {
      "name": "A1.001_Orange  halo_0",
      "primitives": [
        {
          "attributes": {
            "NORMAL": 13,
            "POSITION": 12,
            "TEXCOORD_0": 14
          },
          "indices": 15,
          "material": 1,
          "mode": 4
        }
      ]
    },
    {
      "name": "A1.002_Principal color_0",
      "primitives": [
        {
          "attributes": {
            "NORMAL": 17,
            "POSITION": 16,
            "TEXCOORD_0": 18
          },
          "indices": 19,
          "material": 0,
          "mode": 4
        }
      ]
    },
    {
      "name": "A1.002_Orange  halo_0",
      "primitives": [
        {
          "attributes": {
            "NORMAL": 21,
            "POSITION": 20,
            "TEXCOORD_0": 22
          },
          "indices": 23,
          "material": 1,
          "mode": 4
        }
      ]
    }
  ],
  "nodes": [
    {
      "children": [
        1
      ],
      "matrix": [
        1.0,
        0.0,
        0.0,
        0.0,
        0.0,
        2.220446049250313e-16,
        -1.0,
        0.0,
        0.0,
        1.0,
        2.220446049250313e-16,
        0.0,
        0.0,
        0.0,
        0.0,
        1.0
      ],
      "name": "Sketchfab_model"
    },
    {
      "children": [
        2
      ],
      "matrix": [
        0.009999999776482582,
        0.0,
        0.0,
        0.0,
        0.0,
        0.0,
        0.009999999776482582,
        0.0,
        0.0,
        -0.009999999776482582,
        0.0,
        0.0,
        0.0,
        0.0,
        0.0,
        1.0
      ],
      "name": "39d484a4d2564d96b653aeed20c74261.fbx"
    },
    {
      "children": [
        3,
        6,
        9
      ],
      "name": "RootNode"
    },
    {
      "children": [
        4,
        5
      ],
      "matrix": [
        0.7071067235853895,
        -0.7071067544940083,
        0.0,
        0.0,
        0.7071067544940083,
        0.7071067235853895,
        0.0,
        0.0,
        0.0,
        0.0,
        0.24055582284927368,
        0.0,
        87.51203918457031,
        291.36602783203125,
        -4.12941403737932e-07,
        1.0
      ],
      "name": "A1"
    },
    {
      "mesh": 0,
      "name": "A1_Principal color_0"
    },
    {
      "mesh": 1,
      "name": "A1_Orange  halo_0"
    },
    {
      "children": [
        7,
        8
      ],
      "matrix": [
        0.7071067235853895,
        -0.7071067544940083,
        0.0,
        0.0,
        0.7071067544940083,
        0.7071067235853895,
        0.0,
        0.0,
        0.0,
        0.0,
        0.24055582284927368,
        0.0,
        387.5120544433594,
        291.36602783203125,
        -4.12941403737932e-07,
        1.0
      ],
      "name": "A1.001"
    },
    {
      "mesh": 2,
      "name": "A1.001_Principal color_0"
    },
    {
      "mesh": 3,
      "name": "A1.001_Orange  halo_0"
    },
    {
      "children": [
        10,
        11
      ],
      "matrix": [
        0.7071067235853895,
        -0.7071067544940083,
        0.0,
        0.0,
        0.7071067544940083,
        0.7071067235853895,
        0.0,
        0.0,
        0.0,
        0.0,
        0.24055582284927368,
        0.0,
        687.5120239257813,
        291.36602783203125,
        -4.12941403737932e-07,
        1.0
      ],
      "name": "A1.002"
    },
    {
      "mesh": 4,
      "name": "A1.002_Principal color_0"
    },
    {
      "mesh": 5,
      "name": "A1.002_Orange  halo_0"
    }
  ],
  "scene": 0,
  "scenes": [
    {
      "name": "Sketchfab_Scene",
      "nodes": [
        0
      ]
    }
  ]
}
